<?xml version="1.0" encoding="iso-8859-1"?>
<!-- Generator: Adobe Illustrator 19.0.0, SVG Export Plug-In . SVG Version: 6.00 Build 0)  -->
<svg version="1.1" id="Capa_1" xmlns="http://www.w3.org/2000/svg" xmlns:xlink="http://www.w3.org/1999/xlink" x="0px" y="0px"
	 viewBox="0 0 512 512" style="enable-background:new 0 0 512 512;" xml:space="preserve">
<path style="fill:#2196F3;" d="M288,426.683c-4.709,0.002-8.862-3.085-10.219-7.595l-56.277-187.563l-51.968,103.936
	c-1.697,3.405-5.078,5.648-8.875,5.888c-3.789,0.204-7.408-1.594-9.536-4.736l-39.509-59.264H10.667
	C4.776,277.35,0,272.574,0,266.683c0-5.891,4.776-10.667,10.667-10.667h106.667c3.568,0.002,6.898,1.787,8.875,4.757l32.469,48.704
	l55.765-111.552c1.905-3.973,6.089-6.333,10.475-5.909c4.355,0.374,8.041,3.367,9.301,7.552l51.733,172.373l55.595-278.059
	c0.87-5.251,5.617-8.96,10.923-8.533c5.282,0.201,9.62,4.239,10.197,9.493l19.648,176.789l28.971-14.485
	c1.464-0.734,3.077-1.121,4.715-1.131h85.333c5.891,0,10.667,4.776,10.667,10.667c0,5.891-4.776,10.667-10.667,10.667h-82.816
	l-40.427,20.203c-5.255,2.662-11.674,0.56-14.335-4.696c-0.581-1.147-0.95-2.389-1.089-3.667l-13.76-123.733L298.453,418.15
	c-0.973,4.792-5.079,8.308-9.963,8.533H288z"/>
<g>
</g>
<g>
</g>
<g>
</g>
<g>
</g>
<g>
</g>
<g>
</g>
<g>
</g>
<g>
</g>
<g>
</g>
<g>
</g>
<g>
</g>
<g>
</g>
<g>
</g>
<g>
</g>
<g>
</g>
</svg>
