<svg id="SvgjsSvg1073" width="288" height="288" xmlns="http://www.w3.org/2000/svg" version="1.1" xmlns:xlink="http://www.w3.org/1999/xlink" xmlns:svgjs="http://svgjs.com/svgjs"><defs id="SvgjsDefs1074"></defs><g id="SvgjsG1075" transform="matrix(0.9167,0,0,0.9167,11.993443399047862,11.993443399047862)"><svg xmlns="http://www.w3.org/2000/svg" width="288" height="288" fill-rule="evenodd" clip-rule="evenodd" image-rendering="optimizeQuality" shape-rendering="geometricPrecision" text-rendering="geometricPrecision" viewBox="0 0 6.827 6.827"><circle cx="3.413" cy="3.413" r="3.413" fill="#5e72e4" class="colorf57c00 svgShape"></circle><path fill="#ffffff" d="M5.40014 1.84088c0.0318268,0 0.0622677,0.0127323 0.0847165,0.0352008 0.0224449,0.0224646 0.0351417,0.052878 0.0351417,0.0846614l0 2.90518c0,0.0317835 -0.0126969,0.0621969 -0.0351417,0.0846614 -0.0224488,0.0224685 -0.0528898,0.0352008 -0.0847165,0.0352008l-3.97361 0c-0.0318268,0 -0.0622677,-0.0127323 -0.0847165,-0.0352008 -0.0224449,-0.0224646 -0.0351417,-0.052878 -0.0351417,-0.0846614l0 -2.90518c0,-0.0317835 0.0126969,-0.0621969 0.0351417,-0.0846614 0.0224488,-0.0224685 0.0528898,-0.0352008 0.0847165,-0.0352008l3.97361 0z" class="colorfffffe svgShape"></path><path fill="#767fad" d="M3.08956 2.57383c0,0.0368189 -0.0298465,0.0666693 -0.0666654,0.0666693l-1.27623 0c-0.0368189,0 -0.0666693,-0.0298504 -0.0666693,-0.0666693 0,-0.036815 0.0298504,-0.0666654 0.0666693,-0.0666654l1.27623 0c0.0368189,0 0.0666654,0.0298504 0.0666654,0.0666654zm2.31057 -0.626291l-3.97361 0c-0.00355906,0 -0.00684646,0.00150787 -0.00926772,0.00392913 -0.00242126,0.00242126 -0.0039252,0.00570866 -0.0039252,0.00926772l0 2.90518c0,0.00355906 0.00150394,0.00684646 0.0039252,0.00926772 0.00242126,0.00242126 0.00570866,0.00392913 0.00926772,0.00392913l3.97361 0c0.00355906,0 0.00684646,-0.00150787 0.00926772,-0.00392913 0.00242126,-0.00242126 0.0039252,-0.00570866 0.0039252,-0.00926772l0 -2.90518c0,-0.00355906 -0.00150394,-0.00684646 -0.0039252,-0.00926772 -0.00242126,-0.00242126 -0.00570866,-0.00392913 -0.00926772,-0.00392913zm-2.31057 1.04604c0,0.0368189 -0.0298465,0.0666693 -0.0666654,0.0666693l-1.27623 0c-0.0368189,0 -0.0666693,-0.0298504 -0.0666693,-0.0666693 0,-0.036815 0.0298504,-0.0666654 0.0666693,-0.0666654l1.27623 0c0.0368189,0 0.0666654,0.0298504 0.0666654,0.0666654zm-0.0666654 0.353083c0.0368189,0 0.0666654,0.0298465 0.0666654,0.0666654 0,0.0368189 -0.0298465,0.0666654 -0.0666654,0.0666654l-1.27623 0c-0.0368189,0 -0.0666693,-0.0298465 -0.0666693,-0.0666654 0,-0.0368189 0.0298504,-0.0666654 0.0666693,-0.0666654l1.27623 0zm0 0.419744c0.0368189,0 0.0666654,0.0298504 0.0666654,0.0666693 0,0.036815 -0.0298465,0.0666654 -0.0666654,0.0666654l-1.27623 0c-0.0368189,0 -0.0666693,-0.0298504 -0.0666693,-0.0666654 0,-0.0368189 0.0298504,-0.0666693 0.0666693,-0.0666693l1.27623 0zm0 0.419748c0.0368189,0 0.0666654,0.0298504 0.0666654,0.0666693 0,0.036815 -0.0298465,0.0666654 -0.0666654,0.0666654l-1.27623 0c-0.0368189,0 -0.0666693,-0.0298504 -0.0666693,-0.0666654 0,-0.0368189 0.0298504,-0.0666693 0.0666693,-0.0666693l1.27623 0zm0.946256 -0.710417c-0.124823,-0.124823 -0.202031,-0.297268 -0.202031,-0.487736 0,-0.190469 0.0772087,-0.362913 0.202031,-0.487736 0.124823,-0.124823 0.297272,-0.202035 0.48774,-0.202035 0.190469,0 0.362913,0.0772126 0.487736,0.202035 0.124823,0.124823 0.202035,0.297268 0.202035,0.487736 0,0.190465 -0.0772126,0.362913 -0.202035,0.487736 -0.0164488,0.0164488 -0.0337244,0.0320669 -0.0517598,0.0467953l0 0.939228c0,0.0167559 -0.00627559,0.0335276 -0.018878,0.0464882 -0.0256732,0.0263898 -0.0678819,0.0269724 -0.0942717,0.00129921l0.000125984 -0.000129921 -0.318209 -0.309571 -0.325457 0.303941c-0.0121614,0.0129488 -0.029437,0.0210433 -0.0486063,0.0210433 -0.036815,0 -0.0666654,-0.0298504 -0.0666654,-0.0666693l0 -0.935634c-0.0180354,-0.0147244 -0.0353071,-0.0303465 -0.0517559,-0.0467913z" class="color8d4c09 svgShape"></path><path fill="#767fad" d="M4.12711 3.43623l0 0zm0.329787 -1.00467c-0.153661,0 -0.29278,0.0622835 -0.393469,0.162972 -0.100689,0.100689 -0.162972,0.239803 -0.162972,0.393465 0,0.153661 0.0622835,0.292776 0.162972,0.393465 0.0193031,0.0192992 0.0400157,0.0371929 0.0619764,0.0535039 0.00057874,0.000397638 0.00115748,0.000811024 0.00170472,0.00125984 0.0877992,0.0647047 0.195299,0.104232 0.311839,0.107921 0.00595669,0.000188976 0.0119409,0.000283465 0.0179488,0.000287402 0.00614173,0 0.0122598,-9.84252e-005 0.0183543,-0.000295276 0.115669,-0.00375197 0.222413,-0.0427992 0.309807,-0.106724 1.5748e-005,-7.87402e-006 2.3622e-005,-1.5748e-005 3.93701e-005,-2.75591e-005 0.00105512,-0.000826772 0.0021378,-0.00162598 0.00324409,-0.00238976 1.1811e-005,-1.1811e-005 2.3622e-005,-1.9685e-005 3.93701e-005,-3.14961e-005 0.0219606,-0.016311 0.0426772,-0.0342008 0.0619803,-0.0535039 0.100689,-0.100689 0.162972,-0.239807 0.162972,-0.393465 0,-0.153661 -0.0622835,-0.292776 -0.162972,-0.393465 -0.100689,-0.100689 -0.239803,-0.162972 -0.393465,-0.162972zm-3.93701e-006 0.222406c0.0922402,0 0.175744,0.0373898 0.236193,0.0978386 0.0604488,0.0604488 0.0978386,0.143953 0.0978386,0.236193 0,0.0922283 -0.0373898,0.17574 -0.0978386,0.236185 -0.0604488,0.0604528 -0.143953,0.0978425 -0.236193,0.0978425 -0.0922283,0 -0.175736,-0.0373898 -0.236189,-0.0978386 -0.0604488,-0.0604528 -0.0978386,-0.143961 -0.0978386,-0.236189 0,-0.0922402 0.0373898,-0.175744 0.0978425,-0.236193 0.0604449,-0.0604488 0.143957,-0.0978386 0.236185,-0.0978386z" class="color8d4c09 svgShape"></path><path fill="#767fad" d="M4.31498 2.84608c-.0363189.036315-.0587795.0864921-.0587795.141921 0 .0554213.0224606.105602.0587756.141917.036315.036315.0864961.0587756.141917.0587756.0554291 0 .105606-.0224606.141921-.0587795.036315-.036311.0587795-.0864921.0587795-.141913 0-.0554291-.0224646-.105606-.0587795-.141921-.036315-.036315-.0864921-.0587795-.141921-.0587795-.0554213 0-.105602.0224646-.141913.0587795zM4.45689 3.67777c-.108567 0-.211276-.0250827-.30265-.0697717l0 .696894.262906-.245528-.000102362-.000106299c.0269055-.0251299.0690984-.023685.0942283.00322047l.00116929.00129134.247094.240382 0-.696154c-.091374.044689-.194083.0697717-.302646.0697717z" class="color8d4c09 svgShape"></path></svg></g></svg>