<svg xmlns="http://www.w3.org/2000/svg" width="48" height="48" viewBox="0 0 48 48"><g transform="matrix(1 0 0 1 550 -925.37)"><circle cx="-526" cy="949.369" r="24" fill="#ffa40b" fill-rule="evenodd"/><path fill="#fff" style="line-height:normal;text-indent:0;text-align:start;text-decoration-line:none;text-decoration-style:solid;text-decoration-color:#000;text-transform:none;block-progression:tb;isolation:auto;mix-blend-mode:normal" d="m -526.50591,938.36906 a 0.50005,0.50005 0 0 0 -0.27148,0.084 c -1.77777,1.18517 -3.24324,2.1363 -4.44922,2.90625 a 0.50005,0.50005 0 0 0 -0.0156,0.01 l -2.25781,0 c -0.82236,0 -1.5,0.67764 -1.5,1.5 l 0,0.86523 c -0.71171,0.44958 -1.18352,0.75896 -1.49414,1.04883 -0.3045,0.28416 -0.4645,0.64797 -0.49414,0.97852 a 0.50005,0.50005 0 0 0 0,0.002 0.50005,0.50005 0 0 0 -0.0117,0.10542 l 0,11 c 0,0.82235 0.67764,1.5 1.5,1.5 l 18,0 c 0.71956,0 1.3278,-0.5186 1.46875,-1.19922 0.0201,-0.0972 0.0312,-0.19799 0.0312,-0.30078 l 0,-11 a 0.50005,0.50005 0 0 0 -0.0137,-0.11328 c -0.0318,-0.33316 -0.19574,-0.69835 -0.50586,-0.98438 -0.30883,-0.28482 -0.78297,-0.59644 -1.48047,-1.03711 l 0,-0.86523 c 0,-0.82236 -0.67764,-1.5 -1.5,-1.5 l -2.26172,0 a 0.50010029,0.50010029 0 0 0 -0.041,-0.0293 c -0.0563,-0.0359 -0.11357,-0.0721 -0.17187,-0.10937 l -0.002,0 c -1.16653,-0.7464 -2.56647,-1.6576 -4.2461,-2.77735 a 0.50005,0.50005 0 0 0 -0.28315,-0.084 z m 0.006,1.09766 c 1.12572,0.74844 2.01372,1.32203 2.91016,1.90234 l -5.82422,0 c 0.90492,-0.58574 1.77551,-1.1454 2.91406,-1.90234 z m -7,2.90234 14,0 c 0.28566,0 0.5,0.21434 0.5,0.5 l 0,3.91797 -3.49805,2.09961 a 0.50005,0.50005 0 0 0 -0.46679,-0.32031 0.50005,0.50005 0 0 0 -0.22657,0.0527 l -0.93945,0.45703 -1.37109,-0.79687 1.53711,-0.89453 0.77343,0.375 a 0.50005,0.50005 0 1 0 0.4375,-0.89844 l -0.16992,-0.082 0.46094,-0.26758 a 0.50005,0.50005 0 0 0 -0.23047,-0.93555 l 0,0.002 a 0.50005,0.50005 0 0 0 -0.27344,0.0703 l -0.53515,0.31055 0.0254,-0.34766 a 0.50005,0.50005 0 0 0 -0.51954,-0.54296 0.50005,0.50005 0 0 0 -0.47656,0.4707 l -0.0742,1.02925 -1.45312,0.84375 0,-1.77149 0.7832,-0.53125 a 0.50005,0.50005 0 1 0 -0.56054,-0.82812 l -0.22266,0.15039 0,-0.55273 a 0.50005,0.50005 0 0 0 -0.50781,-0.50782 0.50005,0.50005 0 0 0 -0.49219,0.50782 l 0,0.55273 -0.2207,-0.15039 a 0.50005,0.50005 0 0 0 -0.28321,-0.0918 l 0,0.002 a 0.50005,0.50005 0 0 0 -0.27734,0.91792 l 0.78125,0.5293 0,1.77149 -1.45313,-0.84571 -0.0723,-1.02539 a 0.50005,0.50005 0 0 0 -0.49414,-0.4707 0.50005,0.50005 0 0 0 -0.5039,0.54297 l 0.0254,0.34375 -0.53516,-0.31055 a 0.50005,0.50005 0 0 0 -0.28711,-0.0703 0.50005,0.50005 0 0 0 -0.21679,0.93555 l 0.46289,0.26953 -0.17188,0.082 a 0.50005,0.50005 0 1 0 0.4375,0.89844 l 0.77539,-0.375 1.54102,0.89453 -1.3711,0.79687 -0.94531,-0.45898 a 0.50005,0.50005 0 0 0 -0.24219,-0.0527 l 0,0.002 a 0.50005,0.50005 0 0 0 -0.44936,0.32026 l -3.5,-2.09961 0,-3.91797 c 0,-0.28566 0.21434,-0.5 0.5,-0.5 z m 15.5,2.55664 c 0.37116,0.24588 0.66185,0.45015 0.80273,0.58008 0.0742,0.0684 0.0918,0.0933 0.1211,0.12695 l -0.92383,0.55469 0,-1.26172 z m -17,0.002 0,1.25977 -0.92383,-0.55469 c 0.0282,-0.0323 0.0439,-0.0544 0.11328,-0.11914 0.13909,-0.12984 0.43469,-0.33669 0.81055,-0.58599 z m -1,1.82617 9.24219,5.54493 a 0.50005,0.50005 0 0 0 0.51562,0 l 9.24219,-5.54497 0,10.11523 c 0,0.28564 -0.21434,0.5 -0.5,0.5 l -18,0 c -0.28566,0 -0.5,-0.21434 -0.5,-0.5 l 0,-10.11523 z m 10,2.39258 1.46484,0.85156 0.008,0.10547 -1.27929,0.76758 -0.19335,-0.13091 0,-1.59375 z m -1,0.002 0,1.59375 -0.19141,0.12891 -1.2832,-0.76758 0.008,-0.10156 1.46681,-0.85361 z" color="#000" font-family="sans-serif" font-weight="400" overflow="visible" white-space="normal"/></g></svg>