<svg id="SvgjsSvg1043" width="288" height="288" xmlns="http://www.w3.org/2000/svg" version="1.1" xmlns:xlink="http://www.w3.org/1999/xlink" xmlns:svgjs="http://svgjs.com/svgjs"><defs id="SvgjsDefs1044"></defs><g id="SvgjsG1045" transform="matrix(0.9167,0,0,0.9167,11.995200000000011,11.995200000000011)"><svg xmlns="http://www.w3.org/2000/svg" xmlns:xlink="http://www.w3.org/1999/xlink" width="288" height="288" viewBox="0 0 64 64"><defs><path id="a" d="M.06 64V.04H64V64z" fill="#52cc99" class="color000 svgShape"></path></defs><g fill="none" fill-rule="evenodd"><path fill="#ffffff" d="M39.214 13.132a2 2 0 00-2.582 1.154l-13 34a2 2 0 103.736 1.428l13-34a2 2 0 00-1.154-2.582M54.14 28.852l-10.631-6.554a1.999 1.999 0 10-2.099 3.404l10.123 6.241a.22.22 0 010 .114L41.41 38.298a2 2 0 102.099 3.404l10.631-6.554.165-.165a4.225 4.225 0 000-5.966l-.165-.165" class="colorFFFFFE svgShape"></path><mask id="b" fill="#fff"><use xlink:href="#a"></use></mask><path fill="#ffffff" d="M22.59 38.298l-10.123-6.241a.22.22 0 0 1 0-.114l10.123-6.241a2 2 0 1 0-2.099-3.404L9.86 28.852l-.165.165a4.225 4.225 0 0 0 0 5.966l.165.165 10.631 6.554a1.999 1.999 0 0 0 2.099-3.404" mask="url(#b)" class="colorFFFFFE svgShape"></path><path fill="#52cc99" d="M54.305 34.983l-.165.165-10.631 6.554a1.999 1.999 0 0 1-2.099-3.404l10.123-6.241a.22.22 0 0 0 0-.114L41.41 25.702a2 2 0 1 1 2.099-3.404l10.631 6.554.165.165a4.225 4.225 0 0 1 0 5.966zM27.368 49.714a2 2 0 1 1-3.736-1.428l13-34a2 2 0 1 1 3.736 1.428l-13 34zM21.539 42c-.358 0-.721-.096-1.048-.298L9.86 35.148l-.165-.165a4.225 4.225 0 0 1 0-5.966l.165-.165 10.631-6.554a1.999 1.999 0 1 1 2.099 3.404l-10.123 6.241a.22.22 0 0 0 0 .114l10.123 6.241A2 2 0 0 1 21.539 42zM32 0C14.327 0 0 14.327 0 32c0 17.673 14.327 32 32 32 17.673 0 32-14.327 32-32C64 14.327 49.673 0 32 0z" mask="url(#b)" class="color4C5665 svgShape"></path></g></svg></g></svg>