<svg id="SvgjsSvg1001" width="288" height="288" xmlns="http://www.w3.org/2000/svg" version="1.1" xmlns:xlink="http://www.w3.org/1999/xlink" xmlns:svgjs="http://svgjs.com/svgjs"><defs id="SvgjsDefs1002"></defs><g id="SvgjsG1008" transform="matrix(0.9167,0,0,0.9167,11.995200000000011,11.995383032226556)"><svg xmlns="http://www.w3.org/2000/svg" id="svg6485" width="288" height="288" version="1.1" viewBox="0 0 16 16"><g id="layer1" transform="translate(0 -1036.362)" fill="#17d778" class="color000 svgShape"><path id="path5548" fill="#17d778" fill-opacity="1" stroke="none" stroke-dasharray="none" stroke-dashoffset="0" stroke-linecap="square" stroke-linejoin="miter" stroke-miterlimit="4" stroke-opacity="1" stroke-width="1.5" d="m 7.9999972,1037.1639 a 6,6 0 0 0 -2,4.4629 6,6 0 0 0 0.1211,1.1894 c -0.54153,0.1389 -0.92644,0.8545 -1.0586,1.3477 -0.17564,0.6555 0.0536,2.0409 0.31055,3 0.61475,-0.6107 0.98685,-1.0102 1.29102,-1.3477 a 2.7500012,2.7500174 0 0 0 1.33593,0.3477 2.7500012,2.7500174 0 0 0 1.33399,-0.3477 c 0.30425,0.3376 0.6775898,0.7364 1.2929698,1.3477 0.25698,-0.9591 0.48618,-2.3445 0.31054,-3 -0.13275,-0.4954 -0.52094,-1.2136 -1.0663998,-1.3477 a 6,6 0 0 0 0.1289,-1.1894 6,6 0 0 0 -2,-4.4629 z m 0,3.3008 a 0.84999996,0.84999996 0 0 1 0.84961,0.8496 0.84999996,0.84999996 0 0 1 -0.84961,0.8496 0.84999996,0.84999996 0 0 1 -0.84961,-0.8496 0.84999996,0.84999996 0 0 1 0.84961,-0.8496 z m -0.006,6.3457 a 0.35003496,0.35003496 0 0 0 -0.34375,0.3535 l 0,2 a 0.35003496,0.35003496 0 1 0 0.69922,0 l 0,-2 a 0.35003496,0.35003496 0 0 0 -0.35547,-0.3535 z m 1.6504,1.3535 a 0.35003505,0.35003505 0 0 0 -0.34375,0.3555 l 0,1.3769 a 0.35003505,0.35003505 0 1 0 0.69921,0 l 0,-1.3769 a 0.35003505,0.35003505 0 0 0 -0.35546,-0.3555 z m -3.29883,0.4727 a 0.35003502,0.35003502 0 0 0 -0.34571,0.3554 l 0,2.2012 a 0.35003502,0.35003502 0 1 0 0.69922,0 l 0,-2.2012 a 0.35003502,0.35003502 0 0 0 -0.35351,-0.3554 z m 1.64843,1.5195 a 0.35003496,0.35003496 0 0 0 -0.34375,0.3535 l 0,0.3399 a 0.35003496,0.35003496 0 1 0 0.69922,0 l 0,-0.3399 a 0.35003496,0.35003496 0 0 0 -0.35547,-0.3535 z" opacity="1" paint-order="markers stroke fill" class="color000 svgShape"></path></g></svg></g></svg>