<svg id="SvgjsSvg1001" width="288" height="288" xmlns="http://www.w3.org/2000/svg" version="1.1" xmlns:xlink="http://www.w3.org/1999/xlink" xmlns:svgjs="http://svgjs.com/svgjs"><defs id="SvgjsDefs1002"></defs><g id="SvgjsG1008" transform="matrix(0.9167,0,0,0.9167,11.995200000000011,11.996664257812512)"><svg xmlns="http://www.w3.org/2000/svg" xmlns:xlink="http://www.w3.org/1999/xlink" enable-background="new 0 0 16 16" viewBox="0 0 16 16" width="288" height="288"><defs><linearGradient id="a"><stop offset="0" stop-color="#17d778" class="stopColor000092 svgShape"></stop><stop offset="1" stop-color="#17d778" class="stopColorff00f3 svgShape"></stop></linearGradient><linearGradient id="b" x1="2.25" x2="12" y1="8.001" y2="8.001" gradientUnits="userSpaceOnUse" xlink:href="#a"></linearGradient></defs><path fill="url(#b)" d="M 5.1425781 2.25 C 3.5475781 2.25 2.25 3.5475781 2.25 5.1425781 L 2.25 10.857422 C 2.25 12.452422 3.5475781 13.751953 5.1425781 13.751953 L 10.857422 13.751953 C 12.451422 13.750953 13.75 12.452422 13.75 10.857422 L 13.75 5.1425781 C 13.75 3.5475781 12.452422 2.25 10.857422 2.25 L 5.1425781 2.25 z M 5.1425781 2.75 L 10.857422 2.75 C 12.176422 2.75 13.251953 3.8225781 13.251953 5.1425781 L 13.251953 10.857422 C 13.251953 11.545422 12.955281 12.162609 12.488281 12.599609 C 11.875281 10.638609 10.036125 9.2441406 7.953125 9.2441406 C 5.867125 9.2441406 4.0744531 10.582203 3.4394531 12.533203 C 3.0144531 12.100203 2.75 11.510422 2.75 10.857422 L 2.75 5.1425781 C 2.75 3.8235781 3.8225781 2.75 5.1425781 2.75 z M 7.984375 4.2773438 C 6.748375 4.2773438 5.7421875 5.2815781 5.7421875 6.5175781 C 5.7421875 7.7535781 6.749375 8.7597656 7.984375 8.7597656 C 9.219375 8.7597656 10.224609 7.7535781 10.224609 6.5175781 C 10.224609 5.2815781 9.220375 4.2773438 7.984375 4.2773438 z M 7.984375 4.7773438 C 8.944375 4.7773438 9.7246094 5.5575781 9.7246094 6.5175781 C 9.7246094 7.4775781 8.944375 8.2597656 7.984375 8.2597656 C 7.024375 8.2597656 6.2421875 7.4775781 6.2421875 6.5175781 C 6.2421875 5.5575781 7.024375 4.7773438 7.984375 4.7773438 z M 7.953125 9.7441406 C 9.877125 9.7441406 11.571453 11.068109 12.064453 12.912109 C 11.708453 13.122109 11.300375 13.251953 10.859375 13.251953 L 5.1425781 13.251953 L 5.1425781 13.25 C 4.6675781 13.25 4.2255156 13.107187 3.8535156 12.867188 C 4.3655156 11.023188 6.022125 9.7441406 7.953125 9.7441406 z "></path></svg></g></svg>